<?xml version="1.0" encoding="iso-8859-1"?>
<!-- Generator: Adobe Illustrator 19.0.0, SVG Export Plug-In . SVG Version: 6.00 Build 0)  -->
<svg version="1.1" id="Capa_1" xmlns="http://www.w3.org/2000/svg" xmlns:xlink="http://www.w3.org/1999/xlink" x="0px" y="0px"
	 viewBox="0 0 468.293 468.293" style="enable-background:new 0 0 468.293 468.293;" xml:space="preserve">
<path style="fill:#64798A;" d="M424.682,46.508H12.572c-5.208,0-9.429,4.223-9.429,9.429s4.22,9.429,9.429,9.429h412.11
	c13.649,0,24.753,11.104,24.753,24.756c0,13.646-11.104,24.75-24.753,24.75H260.861c-22.528,0-40.858,18.329-40.858,40.858v6.936
	c0,5.205,4.22,9.429,9.429,9.429c5.208,0,9.429-4.223,9.429-9.429v-6.936c0-12.13,9.871-22,22-22h163.821
	c24.048,0,43.611-19.563,43.611-43.608C468.293,66.071,448.729,46.508,424.682,46.508z"/>
<path style="fill:#27A2DB;" d="M446.376,421.785H12.488C5.591,421.785,0,416.194,0,409.297V187.132
	c0-6.897,5.591-12.488,12.488-12.488h433.888c6.897,0,12.488,5.591,12.488,12.488v222.165
	C458.863,416.194,453.272,421.785,446.376,421.785z"/>
<g>
	<rect x="28.285" y="197.62" style="fill:#E1E6E9;" width="45.331" height="40.51"/>
	<rect x="87.777" y="197.62" style="fill:#E1E6E9;" width="45.331" height="40.51"/>
	<rect x="147.294" y="197.62" style="fill:#E1E6E9;" width="45.331" height="40.51"/>
	<rect x="206.767" y="197.62" style="fill:#E1E6E9;" width="45.331" height="40.51"/>
	<rect x="266.24" y="197.62" style="fill:#E1E6E9;" width="45.331" height="40.51"/>
	<rect x="325.757" y="197.62" style="fill:#E1E6E9;" width="45.331" height="40.51"/>
	<rect x="385.249" y="197.62" style="fill:#E1E6E9;" width="45.331" height="40.51"/>
	<rect x="28.285" y="250.818" style="fill:#E1E6E9;" width="59.492" height="40.51"/>
	<rect x="107.782" y="250.818" style="fill:#E1E6E9;" width="45.331" height="40.51"/>
	<rect x="167.274" y="250.818" style="fill:#E1E6E9;" width="45.331" height="40.51"/>
	<rect x="226.772" y="250.818" style="fill:#E1E6E9;" width="45.331" height="40.51"/>
	<rect x="286.283" y="250.818" style="fill:#E1E6E9;" width="45.331" height="40.51"/>
	<rect x="351.6" y="250.818" style="fill:#E1E6E9;" width="78.979" height="40.51"/>
	<rect x="28.285" y="304.016" style="fill:#E1E6E9;" width="45.331" height="40.51"/>
	<rect x="87.777" y="304.016" style="fill:#E1E6E9;" width="45.331" height="40.51"/>
	<rect x="147.294" y="304.016" style="fill:#E1E6E9;" width="45.331" height="40.51"/>
	<rect x="206.767" y="304.016" style="fill:#E1E6E9;" width="45.331" height="40.51"/>
	<rect x="266.24" y="304.016" style="fill:#E1E6E9;" width="45.331" height="40.51"/>
	<rect x="333.637" y="304.016" style="fill:#E1E6E9;" width="96.943" height="40.51"/>
	<rect x="28.285" y="358.275" style="fill:#E1E6E9;" width="45.331" height="40.51"/>
	<rect x="87.777" y="358.275" style="fill:#E1E6E9;" width="45.331" height="40.51"/>
	<rect x="147.294" y="358.275" style="fill:#E1E6E9;" width="164.315" height="40.51"/>
	<rect x="325.757" y="358.275" style="fill:#E1E6E9;" width="45.331" height="40.51"/>
	<rect x="385.249" y="358.275" style="fill:#E1E6E9;" width="45.331" height="40.51"/>
</g>
<path style="fill:#3A556A;" d="M245.146,174.644h-31.429v-5.734c0-3.448,2.796-6.244,6.244-6.244h18.941
	c3.448,0,6.244,2.796,6.244,6.244V174.644z"/>
<g>
</g>
<g>
</g>
<g>
</g>
<g>
</g>
<g>
</g>
<g>
</g>
<g>
</g>
<g>
</g>
<g>
</g>
<g>
</g>
<g>
</g>
<g>
</g>
<g>
</g>
<g>
</g>
<g>
</g>
</svg>
