<?xml version="1.0" encoding="iso-8859-1"?>
<!-- Generator: Adobe Illustrator 19.0.0, SVG Export Plug-In . SVG Version: 6.00 Build 0)  -->
<svg version="1.1" id="Layer_1" xmlns="http://www.w3.org/2000/svg" xmlns:xlink="http://www.w3.org/1999/xlink" x="0px" y="0px"
	 viewBox="0 0 512 512" style="enable-background:new 0 0 512 512;" xml:space="preserve">
<path style="fill:#FFDA44;" d="M347.371,154.761C328.234,44.154,266.637,6.335,264.025,4.779L255.999,0l-8.025,4.779
	c-2.613,1.555-64.21,39.374-83.347,149.982c-7.165,41.411-9.08,87.652-5.692,137.445c4.156,61.064,16.345,127.506,36.23,197.483
	l15.089-4.289l0,0l91.491-0.003l0,0l15.089,4.289C362.291,329.715,358.531,219.256,347.371,154.761z"/>
<path style="fill:#FFAD41;" d="M347.371,154.761C328.234,44.154,266.637,6.335,264.025,4.779L255.999,0l-1.37,485.399l47.115-0.002
	l0,0l15.089,4.289C362.291,329.715,358.531,219.256,347.371,154.761z"/>
<path style="fill:#FF5023;" d="M159.05,293.722l96.949-80.79l96.86,80.717c4.133-59.125,0.33-105.258-5.488-138.888
	C328.234,44.154,266.637,6.335,264.025,4.779L255.999,0l-8.025,4.779c-2.613,1.555-64.21,39.374-83.347,149.982
	c-7.165,41.411-9.08,87.652-5.692,137.445C158.97,292.709,159.016,293.219,159.05,293.722z"/>
<path style="fill:#BF3C1A;" d="M255.999,212.932l96.86,80.717c4.133-59.125,0.33-105.258-5.488-138.888
	C328.234,44.154,266.637,6.335,264.025,4.779L255.999,0V212.932z"/>
<path style="fill:#AED5F3;" d="M356.81,512c-28.058,0-42.868-5.576-55.935-10.494c-12.091-4.553-22.532-8.482-44.881-8.482
	c-22.348,0-32.789,3.93-44.879,8.482C198.049,506.424,183.24,512,155.182,512c-28.057,0-42.865-5.576-55.931-10.494
	c-12.09-4.553-22.531-8.482-44.877-8.482H38.688v-31.372h15.686c28.057,0,42.865,5.576,55.931,10.494
	c12.09,4.551,22.531,8.482,44.877,8.482c22.348,0,32.789-3.932,44.879-8.482c13.066-4.918,27.874-10.494,55.933-10.494
	s42.868,5.576,55.935,10.494c12.091,4.551,22.532,8.482,44.881,8.482c22.35,0,32.79-3.932,44.881-8.482
	c13.067-4.918,27.876-10.494,55.935-10.494h15.686v31.372h-15.686c-22.35,0-32.79,3.93-44.881,8.482
	C399.678,506.424,384.868,512,356.81,512z"/>
<path style="fill:#78B9EB;" d="M457.626,461.652c-28.058,0-42.868,5.576-55.935,10.494c-12.091,4.551-22.532,8.482-44.881,8.482
	c-22.35,0-32.79-3.932-44.881-8.482c-13.065-4.918-27.874-10.494-55.928-10.494v31.372c22.345,0,32.786,3.932,44.875,8.482
	C313.941,506.424,328.751,512,356.81,512c28.058,0,42.868-5.576,55.935-10.494c12.091-4.553,22.532-8.482,44.881-8.482h15.686
	v-31.372H457.626z"/>
<g>
</g>
<g>
</g>
<g>
</g>
<g>
</g>
<g>
</g>
<g>
</g>
<g>
</g>
<g>
</g>
<g>
</g>
<g>
</g>
<g>
</g>
<g>
</g>
<g>
</g>
<g>
</g>
<g>
</g>
</svg>
